P3
3 3
255
64
64
64
96
96
96
64
64
64
96
96
96
128
128
128
96
96
96
64
64
64
96
96
96
64
64
64
